%TF.GenerationSoftware,KiCad,Pcbnew,9.0.6*%
%TF.CreationDate,2025-11-22T10:53:10-06:00*%
%TF.ProjectId,SChematic Drawing,53436865-6d61-4746-9963-204472617769,rev?*%
%TF.SameCoordinates,Original*%
%TF.FileFunction,Legend,Top*%
%TF.FilePolarity,Positive*%
%FSLAX46Y46*%
G04 Gerber Fmt 4.6, Leading zero omitted, Abs format (unit mm)*
G04 Created by KiCad (PCBNEW 9.0.6) date 2025-11-22 10:53:10*
%MOMM*%
%LPD*%
G01*
G04 APERTURE LIST*
%ADD10C,0.150000*%
%ADD11C,0.100000*%
%ADD12C,0.120000*%
G04 APERTURE END LIST*
D10*
X141494819Y-41508094D02*
X140494819Y-41508094D01*
X140494819Y-41508094D02*
X140494819Y-41269999D01*
X140494819Y-41269999D02*
X140542438Y-41127142D01*
X140542438Y-41127142D02*
X140637676Y-41031904D01*
X140637676Y-41031904D02*
X140732914Y-40984285D01*
X140732914Y-40984285D02*
X140923390Y-40936666D01*
X140923390Y-40936666D02*
X141066247Y-40936666D01*
X141066247Y-40936666D02*
X141256723Y-40984285D01*
X141256723Y-40984285D02*
X141351961Y-41031904D01*
X141351961Y-41031904D02*
X141447200Y-41127142D01*
X141447200Y-41127142D02*
X141494819Y-41269999D01*
X141494819Y-41269999D02*
X141494819Y-41508094D01*
X141494819Y-39984285D02*
X141494819Y-40555713D01*
X141494819Y-40269999D02*
X140494819Y-40269999D01*
X140494819Y-40269999D02*
X140637676Y-40365237D01*
X140637676Y-40365237D02*
X140732914Y-40460475D01*
X140732914Y-40460475D02*
X140780533Y-40555713D01*
X109916667Y-57907200D02*
X110059524Y-57954819D01*
X110059524Y-57954819D02*
X110297619Y-57954819D01*
X110297619Y-57954819D02*
X110392857Y-57907200D01*
X110392857Y-57907200D02*
X110440476Y-57859580D01*
X110440476Y-57859580D02*
X110488095Y-57764342D01*
X110488095Y-57764342D02*
X110488095Y-57669104D01*
X110488095Y-57669104D02*
X110440476Y-57573866D01*
X110440476Y-57573866D02*
X110392857Y-57526247D01*
X110392857Y-57526247D02*
X110297619Y-57478628D01*
X110297619Y-57478628D02*
X110107143Y-57431009D01*
X110107143Y-57431009D02*
X110011905Y-57383390D01*
X110011905Y-57383390D02*
X109964286Y-57335771D01*
X109964286Y-57335771D02*
X109916667Y-57240533D01*
X109916667Y-57240533D02*
X109916667Y-57145295D01*
X109916667Y-57145295D02*
X109964286Y-57050057D01*
X109964286Y-57050057D02*
X110011905Y-57002438D01*
X110011905Y-57002438D02*
X110107143Y-56954819D01*
X110107143Y-56954819D02*
X110345238Y-56954819D01*
X110345238Y-56954819D02*
X110488095Y-57002438D01*
X110821429Y-56954819D02*
X111059524Y-57954819D01*
X111059524Y-57954819D02*
X111250000Y-57240533D01*
X111250000Y-57240533D02*
X111440476Y-57954819D01*
X111440476Y-57954819D02*
X111678572Y-56954819D01*
X112583333Y-57954819D02*
X112011905Y-57954819D01*
X112297619Y-57954819D02*
X112297619Y-56954819D01*
X112297619Y-56954819D02*
X112202381Y-57097676D01*
X112202381Y-57097676D02*
X112107143Y-57192914D01*
X112107143Y-57192914D02*
X112011905Y-57240533D01*
X127533333Y-67374819D02*
X127200000Y-66898628D01*
X126961905Y-67374819D02*
X126961905Y-66374819D01*
X126961905Y-66374819D02*
X127342857Y-66374819D01*
X127342857Y-66374819D02*
X127438095Y-66422438D01*
X127438095Y-66422438D02*
X127485714Y-66470057D01*
X127485714Y-66470057D02*
X127533333Y-66565295D01*
X127533333Y-66565295D02*
X127533333Y-66708152D01*
X127533333Y-66708152D02*
X127485714Y-66803390D01*
X127485714Y-66803390D02*
X127438095Y-66851009D01*
X127438095Y-66851009D02*
X127342857Y-66898628D01*
X127342857Y-66898628D02*
X126961905Y-66898628D01*
X128485714Y-67374819D02*
X127914286Y-67374819D01*
X128200000Y-67374819D02*
X128200000Y-66374819D01*
X128200000Y-66374819D02*
X128104762Y-66517676D01*
X128104762Y-66517676D02*
X128009524Y-66612914D01*
X128009524Y-66612914D02*
X127914286Y-66660533D01*
D11*
X117714285Y-64933609D02*
X117857142Y-64981228D01*
X117857142Y-64981228D02*
X117904761Y-65028847D01*
X117904761Y-65028847D02*
X117952380Y-65124085D01*
X117952380Y-65124085D02*
X117952380Y-65266942D01*
X117952380Y-65266942D02*
X117904761Y-65362180D01*
X117904761Y-65362180D02*
X117857142Y-65409800D01*
X117857142Y-65409800D02*
X117761904Y-65457419D01*
X117761904Y-65457419D02*
X117380952Y-65457419D01*
X117380952Y-65457419D02*
X117380952Y-64457419D01*
X117380952Y-64457419D02*
X117714285Y-64457419D01*
X117714285Y-64457419D02*
X117809523Y-64505038D01*
X117809523Y-64505038D02*
X117857142Y-64552657D01*
X117857142Y-64552657D02*
X117904761Y-64647895D01*
X117904761Y-64647895D02*
X117904761Y-64743133D01*
X117904761Y-64743133D02*
X117857142Y-64838371D01*
X117857142Y-64838371D02*
X117809523Y-64885990D01*
X117809523Y-64885990D02*
X117714285Y-64933609D01*
X117714285Y-64933609D02*
X117380952Y-64933609D01*
X118238095Y-64457419D02*
X118809523Y-64457419D01*
X118523809Y-65457419D02*
X118523809Y-64457419D01*
X119666666Y-65457419D02*
X119095238Y-65457419D01*
X119380952Y-65457419D02*
X119380952Y-64457419D01*
X119380952Y-64457419D02*
X119285714Y-64600276D01*
X119285714Y-64600276D02*
X119190476Y-64695514D01*
X119190476Y-64695514D02*
X119095238Y-64743133D01*
D12*
%TO.C,D1*%
X143455000Y-43330000D02*
X146545000Y-43330000D01*
X143455170Y-43330000D02*
G75*
G02*
X145000000Y-37780000I1544830J2560000D01*
G01*
X145000000Y-37780000D02*
G75*
G02*
X146544830Y-43330000I0J-2990000D01*
G01*
X147500000Y-40770000D02*
G75*
G02*
X142500000Y-40770000I-2500000J0D01*
G01*
X142500000Y-40770000D02*
G75*
G02*
X147500000Y-40770000I2500000J0D01*
G01*
%TO.C,SW1*%
X107750000Y-61000000D02*
X107750000Y-62500000D01*
X109000000Y-65000000D02*
X113500000Y-65000000D01*
X113500000Y-58500000D02*
X109000000Y-58500000D01*
X114750000Y-62500000D02*
X114750000Y-61000000D01*
%TO.C,R1*%
X129590000Y-64000000D02*
X125390000Y-64000000D01*
X133430000Y-64000000D02*
G75*
G02*
X129590000Y-64000000I-1920000J0D01*
G01*
X129590000Y-64000000D02*
G75*
G02*
X133430000Y-64000000I1920000J0D01*
G01*
%TO.C,BT1*%
D11*
X126000000Y-37000000D02*
X131000000Y-37000000D01*
X131000000Y-42000000D01*
X126000000Y-42000000D01*
X126000000Y-37000000D01*
X126500000Y-39500000D02*
G75*
G02*
X103500000Y-39500000I-11500000J0D01*
G01*
X103500000Y-39500000D02*
G75*
G02*
X126500000Y-39500000I11500000J0D01*
G01*
%TD*%
M02*
