%TF.GenerationSoftware,KiCad,Pcbnew,9.0.6*%
%TF.CreationDate,2025-11-22T10:53:10-06:00*%
%TF.ProjectId,SChematic Drawing,53436865-6d61-4746-9963-204472617769,rev?*%
%TF.SameCoordinates,Original*%
%TF.FileFunction,Copper,L1,Top*%
%TF.FilePolarity,Positive*%
%FSLAX46Y46*%
G04 Gerber Fmt 4.6, Leading zero omitted, Abs format (unit mm)*
G04 Created by KiCad (PCBNEW 9.0.6) date 2025-11-22 10:53:10*
%MOMM*%
%LPD*%
G01*
G04 APERTURE LIST*
G04 Aperture macros list*
%AMRoundRect*
0 Rectangle with rounded corners*
0 $1 Rounding radius*
0 $2 $3 $4 $5 $6 $7 $8 $9 X,Y pos of 4 corners*
0 Add a 4 corners polygon primitive as box body*
4,1,4,$2,$3,$4,$5,$6,$7,$8,$9,$2,$3,0*
0 Add four circle primitives for the rounded corners*
1,1,$1+$1,$2,$3*
1,1,$1+$1,$4,$5*
1,1,$1+$1,$6,$7*
1,1,$1+$1,$8,$9*
0 Add four rect primitives between the rounded corners*
20,1,$1+$1,$2,$3,$4,$5,0*
20,1,$1+$1,$4,$5,$6,$7,0*
20,1,$1+$1,$6,$7,$8,$9,0*
20,1,$1+$1,$8,$9,$2,$3,0*%
G04 Aperture macros list end*
%ADD10C,0.300000*%
%TA.AperFunction,NonConductor*%
%ADD11C,0.300000*%
%TD*%
%TA.AperFunction,ComponentPad*%
%ADD12R,1.800000X1.800000*%
%TD*%
%TA.AperFunction,ComponentPad*%
%ADD13C,1.800000*%
%TD*%
%TA.AperFunction,ComponentPad*%
%ADD14C,2.000000*%
%TD*%
%TA.AperFunction,ComponentPad*%
%ADD15C,2.400000*%
%TD*%
%TA.AperFunction,SMDPad,CuDef*%
%ADD16RoundRect,0.190500X-0.762000X-0.444500X0.762000X-0.444500X0.762000X0.444500X-0.762000X0.444500X0*%
%TD*%
%TA.AperFunction,Conductor*%
%ADD17C,0.200000*%
%TD*%
G04 APERTURE END LIST*
D10*
D11*
X141983082Y-58970996D02*
X141983082Y-60042425D01*
X141983082Y-60042425D02*
X141911653Y-60256710D01*
X141911653Y-60256710D02*
X141768796Y-60399568D01*
X141768796Y-60399568D02*
X141554510Y-60470996D01*
X141554510Y-60470996D02*
X141411653Y-60470996D01*
X142911653Y-60470996D02*
X142768796Y-60399568D01*
X142768796Y-60399568D02*
X142697367Y-60328139D01*
X142697367Y-60328139D02*
X142625939Y-60185282D01*
X142625939Y-60185282D02*
X142625939Y-59756710D01*
X142625939Y-59756710D02*
X142697367Y-59613853D01*
X142697367Y-59613853D02*
X142768796Y-59542425D01*
X142768796Y-59542425D02*
X142911653Y-59470996D01*
X142911653Y-59470996D02*
X143125939Y-59470996D01*
X143125939Y-59470996D02*
X143268796Y-59542425D01*
X143268796Y-59542425D02*
X143340225Y-59613853D01*
X143340225Y-59613853D02*
X143411653Y-59756710D01*
X143411653Y-59756710D02*
X143411653Y-60185282D01*
X143411653Y-60185282D02*
X143340225Y-60328139D01*
X143340225Y-60328139D02*
X143268796Y-60399568D01*
X143268796Y-60399568D02*
X143125939Y-60470996D01*
X143125939Y-60470996D02*
X142911653Y-60470996D01*
X144054510Y-59470996D02*
X144054510Y-60470996D01*
X144054510Y-59613853D02*
X144125939Y-59542425D01*
X144125939Y-59542425D02*
X144268796Y-59470996D01*
X144268796Y-59470996D02*
X144483082Y-59470996D01*
X144483082Y-59470996D02*
X144625939Y-59542425D01*
X144625939Y-59542425D02*
X144697368Y-59685282D01*
X144697368Y-59685282D02*
X144697368Y-60470996D01*
X147411653Y-60328139D02*
X147340225Y-60399568D01*
X147340225Y-60399568D02*
X147125939Y-60470996D01*
X147125939Y-60470996D02*
X146983082Y-60470996D01*
X146983082Y-60470996D02*
X146768796Y-60399568D01*
X146768796Y-60399568D02*
X146625939Y-60256710D01*
X146625939Y-60256710D02*
X146554510Y-60113853D01*
X146554510Y-60113853D02*
X146483082Y-59828139D01*
X146483082Y-59828139D02*
X146483082Y-59613853D01*
X146483082Y-59613853D02*
X146554510Y-59328139D01*
X146554510Y-59328139D02*
X146625939Y-59185282D01*
X146625939Y-59185282D02*
X146768796Y-59042425D01*
X146768796Y-59042425D02*
X146983082Y-58970996D01*
X146983082Y-58970996D02*
X147125939Y-58970996D01*
X147125939Y-58970996D02*
X147340225Y-59042425D01*
X147340225Y-59042425D02*
X147411653Y-59113853D01*
X148268796Y-60470996D02*
X148125939Y-60399568D01*
X148125939Y-60399568D02*
X148054510Y-60328139D01*
X148054510Y-60328139D02*
X147983082Y-60185282D01*
X147983082Y-60185282D02*
X147983082Y-59756710D01*
X147983082Y-59756710D02*
X148054510Y-59613853D01*
X148054510Y-59613853D02*
X148125939Y-59542425D01*
X148125939Y-59542425D02*
X148268796Y-59470996D01*
X148268796Y-59470996D02*
X148483082Y-59470996D01*
X148483082Y-59470996D02*
X148625939Y-59542425D01*
X148625939Y-59542425D02*
X148697368Y-59613853D01*
X148697368Y-59613853D02*
X148768796Y-59756710D01*
X148768796Y-59756710D02*
X148768796Y-60185282D01*
X148768796Y-60185282D02*
X148697368Y-60328139D01*
X148697368Y-60328139D02*
X148625939Y-60399568D01*
X148625939Y-60399568D02*
X148483082Y-60470996D01*
X148483082Y-60470996D02*
X148268796Y-60470996D01*
X149625939Y-60470996D02*
X149483082Y-60399568D01*
X149483082Y-60399568D02*
X149411653Y-60256710D01*
X149411653Y-60256710D02*
X149411653Y-58970996D01*
X150768796Y-60399568D02*
X150625939Y-60470996D01*
X150625939Y-60470996D02*
X150340225Y-60470996D01*
X150340225Y-60470996D02*
X150197367Y-60399568D01*
X150197367Y-60399568D02*
X150125939Y-60256710D01*
X150125939Y-60256710D02*
X150125939Y-59685282D01*
X150125939Y-59685282D02*
X150197367Y-59542425D01*
X150197367Y-59542425D02*
X150340225Y-59470996D01*
X150340225Y-59470996D02*
X150625939Y-59470996D01*
X150625939Y-59470996D02*
X150768796Y-59542425D01*
X150768796Y-59542425D02*
X150840225Y-59685282D01*
X150840225Y-59685282D02*
X150840225Y-59828139D01*
X150840225Y-59828139D02*
X150125939Y-59970996D01*
X151483081Y-60470996D02*
X151483081Y-59470996D01*
X151483081Y-59613853D02*
X151554510Y-59542425D01*
X151554510Y-59542425D02*
X151697367Y-59470996D01*
X151697367Y-59470996D02*
X151911653Y-59470996D01*
X151911653Y-59470996D02*
X152054510Y-59542425D01*
X152054510Y-59542425D02*
X152125939Y-59685282D01*
X152125939Y-59685282D02*
X152125939Y-60470996D01*
X152125939Y-59685282D02*
X152197367Y-59542425D01*
X152197367Y-59542425D02*
X152340224Y-59470996D01*
X152340224Y-59470996D02*
X152554510Y-59470996D01*
X152554510Y-59470996D02*
X152697367Y-59542425D01*
X152697367Y-59542425D02*
X152768796Y-59685282D01*
X152768796Y-59685282D02*
X152768796Y-60470996D01*
X154125939Y-60470996D02*
X154125939Y-59685282D01*
X154125939Y-59685282D02*
X154054510Y-59542425D01*
X154054510Y-59542425D02*
X153911653Y-59470996D01*
X153911653Y-59470996D02*
X153625939Y-59470996D01*
X153625939Y-59470996D02*
X153483081Y-59542425D01*
X154125939Y-60399568D02*
X153983081Y-60470996D01*
X153983081Y-60470996D02*
X153625939Y-60470996D01*
X153625939Y-60470996D02*
X153483081Y-60399568D01*
X153483081Y-60399568D02*
X153411653Y-60256710D01*
X153411653Y-60256710D02*
X153411653Y-60113853D01*
X153411653Y-60113853D02*
X153483081Y-59970996D01*
X153483081Y-59970996D02*
X153625939Y-59899568D01*
X153625939Y-59899568D02*
X153983081Y-59899568D01*
X153983081Y-59899568D02*
X154125939Y-59828139D01*
X154840224Y-59470996D02*
X154840224Y-60470996D01*
X154840224Y-59613853D02*
X154911653Y-59542425D01*
X154911653Y-59542425D02*
X155054510Y-59470996D01*
X155054510Y-59470996D02*
X155268796Y-59470996D01*
X155268796Y-59470996D02*
X155411653Y-59542425D01*
X155411653Y-59542425D02*
X155483082Y-59685282D01*
X155483082Y-59685282D02*
X155483082Y-60470996D01*
X141483082Y-62814484D02*
X141697368Y-62885912D01*
X141697368Y-62885912D02*
X142054510Y-62885912D01*
X142054510Y-62885912D02*
X142197368Y-62814484D01*
X142197368Y-62814484D02*
X142268796Y-62743055D01*
X142268796Y-62743055D02*
X142340225Y-62600198D01*
X142340225Y-62600198D02*
X142340225Y-62457341D01*
X142340225Y-62457341D02*
X142268796Y-62314484D01*
X142268796Y-62314484D02*
X142197368Y-62243055D01*
X142197368Y-62243055D02*
X142054510Y-62171626D01*
X142054510Y-62171626D02*
X141768796Y-62100198D01*
X141768796Y-62100198D02*
X141625939Y-62028769D01*
X141625939Y-62028769D02*
X141554510Y-61957341D01*
X141554510Y-61957341D02*
X141483082Y-61814484D01*
X141483082Y-61814484D02*
X141483082Y-61671626D01*
X141483082Y-61671626D02*
X141554510Y-61528769D01*
X141554510Y-61528769D02*
X141625939Y-61457341D01*
X141625939Y-61457341D02*
X141768796Y-61385912D01*
X141768796Y-61385912D02*
X142125939Y-61385912D01*
X142125939Y-61385912D02*
X142340225Y-61457341D01*
X142983081Y-62885912D02*
X142983081Y-61385912D01*
X143125939Y-62314484D02*
X143554510Y-62885912D01*
X143554510Y-61885912D02*
X142983081Y-62457341D01*
X144054510Y-61885912D02*
X144411653Y-62885912D01*
X144768796Y-61885912D02*
X144411653Y-62885912D01*
X144411653Y-62885912D02*
X144268796Y-63243055D01*
X144268796Y-63243055D02*
X144197367Y-63314484D01*
X144197367Y-63314484D02*
X144054510Y-63385912D01*
X146983081Y-62100198D02*
X146483081Y-62100198D01*
X146483081Y-62885912D02*
X146483081Y-61385912D01*
X146483081Y-61385912D02*
X147197367Y-61385912D01*
X148411653Y-62885912D02*
X148411653Y-62100198D01*
X148411653Y-62100198D02*
X148340224Y-61957341D01*
X148340224Y-61957341D02*
X148197367Y-61885912D01*
X148197367Y-61885912D02*
X147911653Y-61885912D01*
X147911653Y-61885912D02*
X147768795Y-61957341D01*
X148411653Y-62814484D02*
X148268795Y-62885912D01*
X148268795Y-62885912D02*
X147911653Y-62885912D01*
X147911653Y-62885912D02*
X147768795Y-62814484D01*
X147768795Y-62814484D02*
X147697367Y-62671626D01*
X147697367Y-62671626D02*
X147697367Y-62528769D01*
X147697367Y-62528769D02*
X147768795Y-62385912D01*
X147768795Y-62385912D02*
X147911653Y-62314484D01*
X147911653Y-62314484D02*
X148268795Y-62314484D01*
X148268795Y-62314484D02*
X148411653Y-62243055D01*
X149768796Y-62814484D02*
X149625938Y-62885912D01*
X149625938Y-62885912D02*
X149340224Y-62885912D01*
X149340224Y-62885912D02*
X149197367Y-62814484D01*
X149197367Y-62814484D02*
X149125938Y-62743055D01*
X149125938Y-62743055D02*
X149054510Y-62600198D01*
X149054510Y-62600198D02*
X149054510Y-62171626D01*
X149054510Y-62171626D02*
X149125938Y-62028769D01*
X149125938Y-62028769D02*
X149197367Y-61957341D01*
X149197367Y-61957341D02*
X149340224Y-61885912D01*
X149340224Y-61885912D02*
X149625938Y-61885912D01*
X149625938Y-61885912D02*
X149768796Y-61957341D01*
X150197367Y-61885912D02*
X150768795Y-61885912D01*
X150411652Y-61385912D02*
X150411652Y-62671626D01*
X150411652Y-62671626D02*
X150483081Y-62814484D01*
X150483081Y-62814484D02*
X150625938Y-62885912D01*
X150625938Y-62885912D02*
X150768795Y-62885912D01*
X151483081Y-62885912D02*
X151340224Y-62814484D01*
X151340224Y-62814484D02*
X151268795Y-62743055D01*
X151268795Y-62743055D02*
X151197367Y-62600198D01*
X151197367Y-62600198D02*
X151197367Y-62171626D01*
X151197367Y-62171626D02*
X151268795Y-62028769D01*
X151268795Y-62028769D02*
X151340224Y-61957341D01*
X151340224Y-61957341D02*
X151483081Y-61885912D01*
X151483081Y-61885912D02*
X151697367Y-61885912D01*
X151697367Y-61885912D02*
X151840224Y-61957341D01*
X151840224Y-61957341D02*
X151911653Y-62028769D01*
X151911653Y-62028769D02*
X151983081Y-62171626D01*
X151983081Y-62171626D02*
X151983081Y-62600198D01*
X151983081Y-62600198D02*
X151911653Y-62743055D01*
X151911653Y-62743055D02*
X151840224Y-62814484D01*
X151840224Y-62814484D02*
X151697367Y-62885912D01*
X151697367Y-62885912D02*
X151483081Y-62885912D01*
X152625938Y-62885912D02*
X152625938Y-61885912D01*
X152625938Y-62171626D02*
X152697367Y-62028769D01*
X152697367Y-62028769D02*
X152768796Y-61957341D01*
X152768796Y-61957341D02*
X152911653Y-61885912D01*
X152911653Y-61885912D02*
X153054510Y-61885912D01*
X155197366Y-62100198D02*
X154697366Y-62100198D01*
X154697366Y-62885912D02*
X154697366Y-61385912D01*
X154697366Y-61385912D02*
X155411652Y-61385912D01*
X156625938Y-62885912D02*
X156625938Y-62100198D01*
X156625938Y-62100198D02*
X156554509Y-61957341D01*
X156554509Y-61957341D02*
X156411652Y-61885912D01*
X156411652Y-61885912D02*
X156125938Y-61885912D01*
X156125938Y-61885912D02*
X155983080Y-61957341D01*
X156625938Y-62814484D02*
X156483080Y-62885912D01*
X156483080Y-62885912D02*
X156125938Y-62885912D01*
X156125938Y-62885912D02*
X155983080Y-62814484D01*
X155983080Y-62814484D02*
X155911652Y-62671626D01*
X155911652Y-62671626D02*
X155911652Y-62528769D01*
X155911652Y-62528769D02*
X155983080Y-62385912D01*
X155983080Y-62385912D02*
X156125938Y-62314484D01*
X156125938Y-62314484D02*
X156483080Y-62314484D01*
X156483080Y-62314484D02*
X156625938Y-62243055D01*
X157340223Y-62885912D02*
X157340223Y-61385912D01*
X157340223Y-61957341D02*
X157483081Y-61885912D01*
X157483081Y-61885912D02*
X157768795Y-61885912D01*
X157768795Y-61885912D02*
X157911652Y-61957341D01*
X157911652Y-61957341D02*
X157983081Y-62028769D01*
X157983081Y-62028769D02*
X158054509Y-62171626D01*
X158054509Y-62171626D02*
X158054509Y-62600198D01*
X158054509Y-62600198D02*
X157983081Y-62743055D01*
X157983081Y-62743055D02*
X157911652Y-62814484D01*
X157911652Y-62814484D02*
X157768795Y-62885912D01*
X157768795Y-62885912D02*
X157483081Y-62885912D01*
X157483081Y-62885912D02*
X157340223Y-62814484D01*
X158697366Y-62885912D02*
X158697366Y-61885912D01*
X158697366Y-62171626D02*
X158768795Y-62028769D01*
X158768795Y-62028769D02*
X158840224Y-61957341D01*
X158840224Y-61957341D02*
X158983081Y-61885912D01*
X158983081Y-61885912D02*
X159125938Y-61885912D01*
X159625937Y-62885912D02*
X159625937Y-61885912D01*
X159625937Y-61385912D02*
X159554509Y-61457341D01*
X159554509Y-61457341D02*
X159625937Y-61528769D01*
X159625937Y-61528769D02*
X159697366Y-61457341D01*
X159697366Y-61457341D02*
X159625937Y-61385912D01*
X159625937Y-61385912D02*
X159625937Y-61528769D01*
X160983081Y-62814484D02*
X160840223Y-62885912D01*
X160840223Y-62885912D02*
X160554509Y-62885912D01*
X160554509Y-62885912D02*
X160411652Y-62814484D01*
X160411652Y-62814484D02*
X160340223Y-62743055D01*
X160340223Y-62743055D02*
X160268795Y-62600198D01*
X160268795Y-62600198D02*
X160268795Y-62171626D01*
X160268795Y-62171626D02*
X160340223Y-62028769D01*
X160340223Y-62028769D02*
X160411652Y-61957341D01*
X160411652Y-61957341D02*
X160554509Y-61885912D01*
X160554509Y-61885912D02*
X160840223Y-61885912D01*
X160840223Y-61885912D02*
X160983081Y-61957341D01*
X162268795Y-62885912D02*
X162268795Y-62100198D01*
X162268795Y-62100198D02*
X162197366Y-61957341D01*
X162197366Y-61957341D02*
X162054509Y-61885912D01*
X162054509Y-61885912D02*
X161768795Y-61885912D01*
X161768795Y-61885912D02*
X161625937Y-61957341D01*
X162268795Y-62814484D02*
X162125937Y-62885912D01*
X162125937Y-62885912D02*
X161768795Y-62885912D01*
X161768795Y-62885912D02*
X161625937Y-62814484D01*
X161625937Y-62814484D02*
X161554509Y-62671626D01*
X161554509Y-62671626D02*
X161554509Y-62528769D01*
X161554509Y-62528769D02*
X161625937Y-62385912D01*
X161625937Y-62385912D02*
X161768795Y-62314484D01*
X161768795Y-62314484D02*
X162125937Y-62314484D01*
X162125937Y-62314484D02*
X162268795Y-62243055D01*
X162768795Y-61885912D02*
X163340223Y-61885912D01*
X162983080Y-61385912D02*
X162983080Y-62671626D01*
X162983080Y-62671626D02*
X163054509Y-62814484D01*
X163054509Y-62814484D02*
X163197366Y-62885912D01*
X163197366Y-62885912D02*
X163340223Y-62885912D01*
X163840223Y-62885912D02*
X163840223Y-61885912D01*
X163840223Y-61385912D02*
X163768795Y-61457341D01*
X163768795Y-61457341D02*
X163840223Y-61528769D01*
X163840223Y-61528769D02*
X163911652Y-61457341D01*
X163911652Y-61457341D02*
X163840223Y-61385912D01*
X163840223Y-61385912D02*
X163840223Y-61528769D01*
X164768795Y-62885912D02*
X164625938Y-62814484D01*
X164625938Y-62814484D02*
X164554509Y-62743055D01*
X164554509Y-62743055D02*
X164483081Y-62600198D01*
X164483081Y-62600198D02*
X164483081Y-62171626D01*
X164483081Y-62171626D02*
X164554509Y-62028769D01*
X164554509Y-62028769D02*
X164625938Y-61957341D01*
X164625938Y-61957341D02*
X164768795Y-61885912D01*
X164768795Y-61885912D02*
X164983081Y-61885912D01*
X164983081Y-61885912D02*
X165125938Y-61957341D01*
X165125938Y-61957341D02*
X165197367Y-62028769D01*
X165197367Y-62028769D02*
X165268795Y-62171626D01*
X165268795Y-62171626D02*
X165268795Y-62600198D01*
X165268795Y-62600198D02*
X165197367Y-62743055D01*
X165197367Y-62743055D02*
X165125938Y-62814484D01*
X165125938Y-62814484D02*
X164983081Y-62885912D01*
X164983081Y-62885912D02*
X164768795Y-62885912D01*
X165911652Y-61885912D02*
X165911652Y-62885912D01*
X165911652Y-62028769D02*
X165983081Y-61957341D01*
X165983081Y-61957341D02*
X166125938Y-61885912D01*
X166125938Y-61885912D02*
X166340224Y-61885912D01*
X166340224Y-61885912D02*
X166483081Y-61957341D01*
X166483081Y-61957341D02*
X166554510Y-62100198D01*
X166554510Y-62100198D02*
X166554510Y-62885912D01*
X141983082Y-63800828D02*
X141983082Y-64872257D01*
X141983082Y-64872257D02*
X141911653Y-65086542D01*
X141911653Y-65086542D02*
X141768796Y-65229400D01*
X141768796Y-65229400D02*
X141554510Y-65300828D01*
X141554510Y-65300828D02*
X141411653Y-65300828D01*
X142911653Y-65300828D02*
X142768796Y-65229400D01*
X142768796Y-65229400D02*
X142697367Y-65157971D01*
X142697367Y-65157971D02*
X142625939Y-65015114D01*
X142625939Y-65015114D02*
X142625939Y-64586542D01*
X142625939Y-64586542D02*
X142697367Y-64443685D01*
X142697367Y-64443685D02*
X142768796Y-64372257D01*
X142768796Y-64372257D02*
X142911653Y-64300828D01*
X142911653Y-64300828D02*
X143125939Y-64300828D01*
X143125939Y-64300828D02*
X143268796Y-64372257D01*
X143268796Y-64372257D02*
X143340225Y-64443685D01*
X143340225Y-64443685D02*
X143411653Y-64586542D01*
X143411653Y-64586542D02*
X143411653Y-65015114D01*
X143411653Y-65015114D02*
X143340225Y-65157971D01*
X143340225Y-65157971D02*
X143268796Y-65229400D01*
X143268796Y-65229400D02*
X143125939Y-65300828D01*
X143125939Y-65300828D02*
X142911653Y-65300828D01*
X144054510Y-64300828D02*
X144054510Y-65300828D01*
X144054510Y-64443685D02*
X144125939Y-64372257D01*
X144125939Y-64372257D02*
X144268796Y-64300828D01*
X144268796Y-64300828D02*
X144483082Y-64300828D01*
X144483082Y-64300828D02*
X144625939Y-64372257D01*
X144625939Y-64372257D02*
X144697368Y-64515114D01*
X144697368Y-64515114D02*
X144697368Y-65300828D01*
X146268796Y-65157971D02*
X146197368Y-65229400D01*
X146197368Y-65229400D02*
X145983082Y-65300828D01*
X145983082Y-65300828D02*
X145840225Y-65300828D01*
X145840225Y-65300828D02*
X145625939Y-65229400D01*
X145625939Y-65229400D02*
X145483082Y-65086542D01*
X145483082Y-65086542D02*
X145411653Y-64943685D01*
X145411653Y-64943685D02*
X145340225Y-64657971D01*
X145340225Y-64657971D02*
X145340225Y-64443685D01*
X145340225Y-64443685D02*
X145411653Y-64157971D01*
X145411653Y-64157971D02*
X145483082Y-64015114D01*
X145483082Y-64015114D02*
X145625939Y-63872257D01*
X145625939Y-63872257D02*
X145840225Y-63800828D01*
X145840225Y-63800828D02*
X145983082Y-63800828D01*
X145983082Y-63800828D02*
X146197368Y-63872257D01*
X146197368Y-63872257D02*
X146268796Y-63943685D01*
X147125939Y-65300828D02*
X146983082Y-65229400D01*
X146983082Y-65229400D02*
X146911653Y-65157971D01*
X146911653Y-65157971D02*
X146840225Y-65015114D01*
X146840225Y-65015114D02*
X146840225Y-64586542D01*
X146840225Y-64586542D02*
X146911653Y-64443685D01*
X146911653Y-64443685D02*
X146983082Y-64372257D01*
X146983082Y-64372257D02*
X147125939Y-64300828D01*
X147125939Y-64300828D02*
X147340225Y-64300828D01*
X147340225Y-64300828D02*
X147483082Y-64372257D01*
X147483082Y-64372257D02*
X147554511Y-64443685D01*
X147554511Y-64443685D02*
X147625939Y-64586542D01*
X147625939Y-64586542D02*
X147625939Y-65015114D01*
X147625939Y-65015114D02*
X147554511Y-65157971D01*
X147554511Y-65157971D02*
X147483082Y-65229400D01*
X147483082Y-65229400D02*
X147340225Y-65300828D01*
X147340225Y-65300828D02*
X147125939Y-65300828D01*
X148483082Y-65300828D02*
X148340225Y-65229400D01*
X148340225Y-65229400D02*
X148268796Y-65086542D01*
X148268796Y-65086542D02*
X148268796Y-63800828D01*
X149625939Y-65229400D02*
X149483082Y-65300828D01*
X149483082Y-65300828D02*
X149197368Y-65300828D01*
X149197368Y-65300828D02*
X149054510Y-65229400D01*
X149054510Y-65229400D02*
X148983082Y-65086542D01*
X148983082Y-65086542D02*
X148983082Y-64515114D01*
X148983082Y-64515114D02*
X149054510Y-64372257D01*
X149054510Y-64372257D02*
X149197368Y-64300828D01*
X149197368Y-64300828D02*
X149483082Y-64300828D01*
X149483082Y-64300828D02*
X149625939Y-64372257D01*
X149625939Y-64372257D02*
X149697368Y-64515114D01*
X149697368Y-64515114D02*
X149697368Y-64657971D01*
X149697368Y-64657971D02*
X148983082Y-64800828D01*
X150340224Y-65300828D02*
X150340224Y-64300828D01*
X150340224Y-64443685D02*
X150411653Y-64372257D01*
X150411653Y-64372257D02*
X150554510Y-64300828D01*
X150554510Y-64300828D02*
X150768796Y-64300828D01*
X150768796Y-64300828D02*
X150911653Y-64372257D01*
X150911653Y-64372257D02*
X150983082Y-64515114D01*
X150983082Y-64515114D02*
X150983082Y-65300828D01*
X150983082Y-64515114D02*
X151054510Y-64372257D01*
X151054510Y-64372257D02*
X151197367Y-64300828D01*
X151197367Y-64300828D02*
X151411653Y-64300828D01*
X151411653Y-64300828D02*
X151554510Y-64372257D01*
X151554510Y-64372257D02*
X151625939Y-64515114D01*
X151625939Y-64515114D02*
X151625939Y-65300828D01*
X153268796Y-64586542D02*
X153197367Y-64515114D01*
X153197367Y-64515114D02*
X153054510Y-64443685D01*
X153054510Y-64443685D02*
X152911653Y-64443685D01*
X152911653Y-64443685D02*
X152768796Y-64515114D01*
X152768796Y-64515114D02*
X152697367Y-64586542D01*
X152697367Y-64586542D02*
X152625939Y-64729400D01*
X152625939Y-64729400D02*
X152625939Y-64872257D01*
X152625939Y-64872257D02*
X152697367Y-65015114D01*
X152697367Y-65015114D02*
X152768796Y-65086542D01*
X152768796Y-65086542D02*
X152911653Y-65157971D01*
X152911653Y-65157971D02*
X153054510Y-65157971D01*
X153054510Y-65157971D02*
X153197367Y-65086542D01*
X153197367Y-65086542D02*
X153268796Y-65015114D01*
X153268796Y-64443685D02*
X153268796Y-65015114D01*
X153268796Y-65015114D02*
X153340224Y-65086542D01*
X153340224Y-65086542D02*
X153411653Y-65086542D01*
X153411653Y-65086542D02*
X153554510Y-65015114D01*
X153554510Y-65015114D02*
X153625939Y-64872257D01*
X153625939Y-64872257D02*
X153625939Y-64515114D01*
X153625939Y-64515114D02*
X153483082Y-64300828D01*
X153483082Y-64300828D02*
X153268796Y-64157971D01*
X153268796Y-64157971D02*
X152983082Y-64086542D01*
X152983082Y-64086542D02*
X152697367Y-64157971D01*
X152697367Y-64157971D02*
X152483082Y-64300828D01*
X152483082Y-64300828D02*
X152340224Y-64515114D01*
X152340224Y-64515114D02*
X152268796Y-64800828D01*
X152268796Y-64800828D02*
X152340224Y-65086542D01*
X152340224Y-65086542D02*
X152483082Y-65300828D01*
X152483082Y-65300828D02*
X152697367Y-65443685D01*
X152697367Y-65443685D02*
X152983082Y-65515114D01*
X152983082Y-65515114D02*
X153268796Y-65443685D01*
X153268796Y-65443685D02*
X153483082Y-65300828D01*
X154911653Y-64300828D02*
X154911653Y-65300828D01*
X154268795Y-64300828D02*
X154268795Y-65086542D01*
X154268795Y-65086542D02*
X154340224Y-65229400D01*
X154340224Y-65229400D02*
X154483081Y-65300828D01*
X154483081Y-65300828D02*
X154697367Y-65300828D01*
X154697367Y-65300828D02*
X154840224Y-65229400D01*
X154840224Y-65229400D02*
X154911653Y-65157971D01*
X156268796Y-65300828D02*
X156268796Y-64515114D01*
X156268796Y-64515114D02*
X156197367Y-64372257D01*
X156197367Y-64372257D02*
X156054510Y-64300828D01*
X156054510Y-64300828D02*
X155768796Y-64300828D01*
X155768796Y-64300828D02*
X155625938Y-64372257D01*
X156268796Y-65229400D02*
X156125938Y-65300828D01*
X156125938Y-65300828D02*
X155768796Y-65300828D01*
X155768796Y-65300828D02*
X155625938Y-65229400D01*
X155625938Y-65229400D02*
X155554510Y-65086542D01*
X155554510Y-65086542D02*
X155554510Y-64943685D01*
X155554510Y-64943685D02*
X155625938Y-64800828D01*
X155625938Y-64800828D02*
X155768796Y-64729400D01*
X155768796Y-64729400D02*
X156125938Y-64729400D01*
X156125938Y-64729400D02*
X156268796Y-64657971D01*
X156768796Y-64300828D02*
X157340224Y-64300828D01*
X156983081Y-63800828D02*
X156983081Y-65086542D01*
X156983081Y-65086542D02*
X157054510Y-65229400D01*
X157054510Y-65229400D02*
X157197367Y-65300828D01*
X157197367Y-65300828D02*
X157340224Y-65300828D01*
X157840224Y-65157971D02*
X157911653Y-65229400D01*
X157911653Y-65229400D02*
X157840224Y-65300828D01*
X157840224Y-65300828D02*
X157768796Y-65229400D01*
X157768796Y-65229400D02*
X157840224Y-65157971D01*
X157840224Y-65157971D02*
X157840224Y-65300828D01*
X159125939Y-65229400D02*
X158983082Y-65300828D01*
X158983082Y-65300828D02*
X158697368Y-65300828D01*
X158697368Y-65300828D02*
X158554510Y-65229400D01*
X158554510Y-65229400D02*
X158483082Y-65086542D01*
X158483082Y-65086542D02*
X158483082Y-64515114D01*
X158483082Y-64515114D02*
X158554510Y-64372257D01*
X158554510Y-64372257D02*
X158697368Y-64300828D01*
X158697368Y-64300828D02*
X158983082Y-64300828D01*
X158983082Y-64300828D02*
X159125939Y-64372257D01*
X159125939Y-64372257D02*
X159197368Y-64515114D01*
X159197368Y-64515114D02*
X159197368Y-64657971D01*
X159197368Y-64657971D02*
X158483082Y-64800828D01*
X160483082Y-65300828D02*
X160483082Y-63800828D01*
X160483082Y-65229400D02*
X160340224Y-65300828D01*
X160340224Y-65300828D02*
X160054510Y-65300828D01*
X160054510Y-65300828D02*
X159911653Y-65229400D01*
X159911653Y-65229400D02*
X159840224Y-65157971D01*
X159840224Y-65157971D02*
X159768796Y-65015114D01*
X159768796Y-65015114D02*
X159768796Y-64586542D01*
X159768796Y-64586542D02*
X159840224Y-64443685D01*
X159840224Y-64443685D02*
X159911653Y-64372257D01*
X159911653Y-64372257D02*
X160054510Y-64300828D01*
X160054510Y-64300828D02*
X160340224Y-64300828D01*
X160340224Y-64300828D02*
X160483082Y-64372257D01*
X161840225Y-64300828D02*
X161840225Y-65300828D01*
X161197367Y-64300828D02*
X161197367Y-65086542D01*
X161197367Y-65086542D02*
X161268796Y-65229400D01*
X161268796Y-65229400D02*
X161411653Y-65300828D01*
X161411653Y-65300828D02*
X161625939Y-65300828D01*
X161625939Y-65300828D02*
X161768796Y-65229400D01*
X161768796Y-65229400D02*
X161840225Y-65157971D01*
X163197367Y-63657971D02*
X164483082Y-65586542D01*
X164197367Y-63657971D02*
X165483082Y-65586542D01*
X166768796Y-63943685D02*
X166840224Y-63872257D01*
X166840224Y-63872257D02*
X166983082Y-63800828D01*
X166983082Y-63800828D02*
X167340224Y-63800828D01*
X167340224Y-63800828D02*
X167483082Y-63872257D01*
X167483082Y-63872257D02*
X167554510Y-63943685D01*
X167554510Y-63943685D02*
X167625939Y-64086542D01*
X167625939Y-64086542D02*
X167625939Y-64229400D01*
X167625939Y-64229400D02*
X167554510Y-64443685D01*
X167554510Y-64443685D02*
X166697367Y-65300828D01*
X166697367Y-65300828D02*
X167625939Y-65300828D01*
X169054510Y-65300828D02*
X168197367Y-65300828D01*
X168625938Y-65300828D02*
X168625938Y-63800828D01*
X168625938Y-63800828D02*
X168483081Y-64015114D01*
X168483081Y-64015114D02*
X168340224Y-64157971D01*
X168340224Y-64157971D02*
X168197367Y-64229400D01*
X169554509Y-63800828D02*
X170554509Y-63800828D01*
X170554509Y-63800828D02*
X169911652Y-65300828D01*
X171125937Y-64729400D02*
X172268795Y-64729400D01*
X172911652Y-63943685D02*
X172983080Y-63872257D01*
X172983080Y-63872257D02*
X173125938Y-63800828D01*
X173125938Y-63800828D02*
X173483080Y-63800828D01*
X173483080Y-63800828D02*
X173625938Y-63872257D01*
X173625938Y-63872257D02*
X173697366Y-63943685D01*
X173697366Y-63943685D02*
X173768795Y-64086542D01*
X173768795Y-64086542D02*
X173768795Y-64229400D01*
X173768795Y-64229400D02*
X173697366Y-64443685D01*
X173697366Y-64443685D02*
X172840223Y-65300828D01*
X172840223Y-65300828D02*
X173768795Y-65300828D01*
X175197366Y-65300828D02*
X174340223Y-65300828D01*
X174768794Y-65300828D02*
X174768794Y-63800828D01*
X174768794Y-63800828D02*
X174625937Y-64015114D01*
X174625937Y-64015114D02*
X174483080Y-64157971D01*
X174483080Y-64157971D02*
X174340223Y-64229400D01*
X175911651Y-65300828D02*
X176197365Y-65300828D01*
X176197365Y-65300828D02*
X176340222Y-65229400D01*
X176340222Y-65229400D02*
X176411651Y-65157971D01*
X176411651Y-65157971D02*
X176554508Y-64943685D01*
X176554508Y-64943685D02*
X176625937Y-64657971D01*
X176625937Y-64657971D02*
X176625937Y-64086542D01*
X176625937Y-64086542D02*
X176554508Y-63943685D01*
X176554508Y-63943685D02*
X176483080Y-63872257D01*
X176483080Y-63872257D02*
X176340222Y-63800828D01*
X176340222Y-63800828D02*
X176054508Y-63800828D01*
X176054508Y-63800828D02*
X175911651Y-63872257D01*
X175911651Y-63872257D02*
X175840222Y-63943685D01*
X175840222Y-63943685D02*
X175768794Y-64086542D01*
X175768794Y-64086542D02*
X175768794Y-64443685D01*
X175768794Y-64443685D02*
X175840222Y-64586542D01*
X175840222Y-64586542D02*
X175911651Y-64657971D01*
X175911651Y-64657971D02*
X176054508Y-64729400D01*
X176054508Y-64729400D02*
X176340222Y-64729400D01*
X176340222Y-64729400D02*
X176483080Y-64657971D01*
X176483080Y-64657971D02*
X176554508Y-64586542D01*
X176554508Y-64586542D02*
X176625937Y-64443685D01*
X177268793Y-64729400D02*
X178411651Y-64729400D01*
X179840222Y-63800828D02*
X179125936Y-63800828D01*
X179125936Y-63800828D02*
X179054508Y-64515114D01*
X179054508Y-64515114D02*
X179125936Y-64443685D01*
X179125936Y-64443685D02*
X179268794Y-64372257D01*
X179268794Y-64372257D02*
X179625936Y-64372257D01*
X179625936Y-64372257D02*
X179768794Y-64443685D01*
X179768794Y-64443685D02*
X179840222Y-64515114D01*
X179840222Y-64515114D02*
X179911651Y-64657971D01*
X179911651Y-64657971D02*
X179911651Y-65015114D01*
X179911651Y-65015114D02*
X179840222Y-65157971D01*
X179840222Y-65157971D02*
X179768794Y-65229400D01*
X179768794Y-65229400D02*
X179625936Y-65300828D01*
X179625936Y-65300828D02*
X179268794Y-65300828D01*
X179268794Y-65300828D02*
X179125936Y-65229400D01*
X179125936Y-65229400D02*
X179054508Y-65157971D01*
X181268793Y-63800828D02*
X180554507Y-63800828D01*
X180554507Y-63800828D02*
X180483079Y-64515114D01*
X180483079Y-64515114D02*
X180554507Y-64443685D01*
X180554507Y-64443685D02*
X180697365Y-64372257D01*
X180697365Y-64372257D02*
X181054507Y-64372257D01*
X181054507Y-64372257D02*
X181197365Y-64443685D01*
X181197365Y-64443685D02*
X181268793Y-64515114D01*
X181268793Y-64515114D02*
X181340222Y-64657971D01*
X181340222Y-64657971D02*
X181340222Y-65015114D01*
X181340222Y-65015114D02*
X181268793Y-65157971D01*
X181268793Y-65157971D02*
X181197365Y-65229400D01*
X181197365Y-65229400D02*
X181054507Y-65300828D01*
X181054507Y-65300828D02*
X180697365Y-65300828D01*
X180697365Y-65300828D02*
X180554507Y-65229400D01*
X180554507Y-65229400D02*
X180483079Y-65157971D01*
X182054507Y-65300828D02*
X182340221Y-65300828D01*
X182340221Y-65300828D02*
X182483078Y-65229400D01*
X182483078Y-65229400D02*
X182554507Y-65157971D01*
X182554507Y-65157971D02*
X182697364Y-64943685D01*
X182697364Y-64943685D02*
X182768793Y-64657971D01*
X182768793Y-64657971D02*
X182768793Y-64086542D01*
X182768793Y-64086542D02*
X182697364Y-63943685D01*
X182697364Y-63943685D02*
X182625936Y-63872257D01*
X182625936Y-63872257D02*
X182483078Y-63800828D01*
X182483078Y-63800828D02*
X182197364Y-63800828D01*
X182197364Y-63800828D02*
X182054507Y-63872257D01*
X182054507Y-63872257D02*
X181983078Y-63943685D01*
X181983078Y-63943685D02*
X181911650Y-64086542D01*
X181911650Y-64086542D02*
X181911650Y-64443685D01*
X181911650Y-64443685D02*
X181983078Y-64586542D01*
X181983078Y-64586542D02*
X182054507Y-64657971D01*
X182054507Y-64657971D02*
X182197364Y-64729400D01*
X182197364Y-64729400D02*
X182483078Y-64729400D01*
X182483078Y-64729400D02*
X182625936Y-64657971D01*
X182625936Y-64657971D02*
X182697364Y-64586542D01*
X182697364Y-64586542D02*
X182768793Y-64443685D01*
X184197364Y-65300828D02*
X183340221Y-65300828D01*
X183768792Y-65300828D02*
X183768792Y-63800828D01*
X183768792Y-63800828D02*
X183625935Y-64015114D01*
X183625935Y-64015114D02*
X183483078Y-64157971D01*
X183483078Y-64157971D02*
X183340221Y-64229400D01*
D12*
%TO.P,D1,1,K*%
%TO.N,Net-(D1-K)*%
X145000000Y-42040000D03*
D13*
%TO.P,D1,2,A*%
%TO.N,Net-(BT1-+)*%
X145000000Y-39500000D03*
%TD*%
D14*
%TO.P,SW1,1,1*%
%TO.N,Net-(BT1--)*%
X108000000Y-59500000D03*
X114500000Y-59500000D03*
%TO.P,SW1,2,2*%
%TO.N,Net-(R1-Pad2)*%
X108000000Y-64000000D03*
X114500000Y-64000000D03*
%TD*%
D15*
%TO.P,R1,1*%
%TO.N,Net-(D1-K)*%
X131510000Y-64000000D03*
%TO.P,R1,2*%
%TO.N,Net-(R1-Pad2)*%
X123890000Y-64000000D03*
%TD*%
D16*
%TO.P,BT1,1,+*%
%TO.N,Net-(BT1-+)*%
X128500000Y-39500000D03*
%TO.P,BT1,2,-*%
%TO.N,Net-(BT1--)*%
X109000000Y-39500000D03*
%TD*%
D17*
%TO.N,Net-(BT1--)*%
X108000000Y-59500000D02*
X108000000Y-40000000D01*
X108000000Y-40000000D02*
X108500000Y-39500000D01*
%TO.N,Net-(R1-Pad2)*%
X123890000Y-64000000D02*
X114500000Y-64000000D01*
%TO.N,Net-(D1-K)*%
X131510000Y-42990000D02*
X131510000Y-64000000D01*
X145000000Y-42040000D02*
X132460000Y-42040000D01*
X132460000Y-42040000D02*
X131510000Y-42990000D01*
%TO.N,Net-(BT1-+)*%
X128000000Y-39500000D02*
X145000000Y-39500000D01*
%TD*%
%TA.AperFunction,NonConductor*%
G36*
X189942539Y-27020185D02*
G01*
X189988294Y-27072989D01*
X189999500Y-27124500D01*
X189999500Y-76875500D01*
X189979815Y-76942539D01*
X189927011Y-76988294D01*
X189875500Y-76999500D01*
X102124500Y-76999500D01*
X102057461Y-76979815D01*
X102011706Y-76927011D01*
X102000500Y-76875500D01*
X102000500Y-66244885D01*
X140756153Y-66244885D01*
X184852864Y-66244885D01*
X184852864Y-58313771D01*
X140756153Y-58313771D01*
X140756153Y-66244885D01*
X102000500Y-66244885D01*
X102000500Y-63881902D01*
X106499500Y-63881902D01*
X106499500Y-64118097D01*
X106536446Y-64351368D01*
X106609433Y-64575996D01*
X106699987Y-64753717D01*
X106716657Y-64786433D01*
X106855483Y-64977510D01*
X107022490Y-65144517D01*
X107213567Y-65283343D01*
X107312991Y-65334002D01*
X107424003Y-65390566D01*
X107424005Y-65390566D01*
X107424008Y-65390568D01*
X107505194Y-65416947D01*
X107648631Y-65463553D01*
X107881903Y-65500500D01*
X107881908Y-65500500D01*
X108118097Y-65500500D01*
X108351368Y-65463553D01*
X108575992Y-65390568D01*
X108786433Y-65283343D01*
X108977510Y-65144517D01*
X109144517Y-64977510D01*
X109283343Y-64786433D01*
X109390568Y-64575992D01*
X109463553Y-64351368D01*
X109466549Y-64332452D01*
X109500500Y-64118097D01*
X109500500Y-63881902D01*
X112999500Y-63881902D01*
X112999500Y-64118097D01*
X113036446Y-64351368D01*
X113109433Y-64575996D01*
X113199987Y-64753717D01*
X113216657Y-64786433D01*
X113355483Y-64977510D01*
X113522490Y-65144517D01*
X113713567Y-65283343D01*
X113812991Y-65334002D01*
X113924003Y-65390566D01*
X113924005Y-65390566D01*
X113924008Y-65390568D01*
X114005194Y-65416947D01*
X114148631Y-65463553D01*
X114381903Y-65500500D01*
X114381908Y-65500500D01*
X114618097Y-65500500D01*
X114851368Y-65463553D01*
X115075992Y-65390568D01*
X115286433Y-65283343D01*
X115477510Y-65144517D01*
X115644517Y-64977510D01*
X115783343Y-64786433D01*
X115843583Y-64668204D01*
X115891558Y-64617409D01*
X115954068Y-64600500D01*
X122215273Y-64600500D01*
X122282312Y-64620185D01*
X122328067Y-64672989D01*
X122329834Y-64677048D01*
X122361590Y-64753717D01*
X122361593Y-64753722D01*
X122361595Y-64753726D01*
X122473052Y-64946774D01*
X122473057Y-64946780D01*
X122473058Y-64946782D01*
X122608751Y-65123622D01*
X122608757Y-65123629D01*
X122766370Y-65281242D01*
X122766377Y-65281248D01*
X122892294Y-65377867D01*
X122943226Y-65416948D01*
X123136274Y-65528405D01*
X123342219Y-65613710D01*
X123557537Y-65671404D01*
X123778543Y-65700500D01*
X123778550Y-65700500D01*
X124001450Y-65700500D01*
X124001457Y-65700500D01*
X124222463Y-65671404D01*
X124437781Y-65613710D01*
X124643726Y-65528405D01*
X124836774Y-65416948D01*
X125013624Y-65281247D01*
X125171247Y-65123624D01*
X125306948Y-64946774D01*
X125418405Y-64753726D01*
X125503710Y-64547781D01*
X125561404Y-64332463D01*
X125590500Y-64111457D01*
X125590500Y-63888543D01*
X125561404Y-63667537D01*
X125503710Y-63452219D01*
X125418405Y-63246274D01*
X125306948Y-63053226D01*
X125171247Y-62876376D01*
X125171242Y-62876370D01*
X125013629Y-62718757D01*
X125013622Y-62718751D01*
X124836782Y-62583058D01*
X124836780Y-62583057D01*
X124836774Y-62583052D01*
X124643726Y-62471595D01*
X124643724Y-62471594D01*
X124643722Y-62471593D01*
X124437790Y-62386293D01*
X124437783Y-62386291D01*
X124437781Y-62386290D01*
X124222463Y-62328596D01*
X124222457Y-62328595D01*
X124222452Y-62328594D01*
X124001466Y-62299501D01*
X124001463Y-62299500D01*
X124001457Y-62299500D01*
X123778543Y-62299500D01*
X123778537Y-62299500D01*
X123778533Y-62299501D01*
X123557547Y-62328594D01*
X123557540Y-62328595D01*
X123557537Y-62328596D01*
X123553432Y-62329696D01*
X123342219Y-62386290D01*
X123342209Y-62386293D01*
X123136277Y-62471593D01*
X123136273Y-62471595D01*
X122943226Y-62583052D01*
X122943217Y-62583058D01*
X122766377Y-62718751D01*
X122766370Y-62718757D01*
X122608757Y-62876370D01*
X122608751Y-62876377D01*
X122473058Y-63053217D01*
X122473052Y-63053226D01*
X122361595Y-63246273D01*
X122361590Y-63246282D01*
X122329834Y-63322952D01*
X122285994Y-63377356D01*
X122219700Y-63399421D01*
X122215273Y-63399500D01*
X115954068Y-63399500D01*
X115887029Y-63379815D01*
X115843583Y-63331795D01*
X115783343Y-63213567D01*
X115644517Y-63022490D01*
X115477510Y-62855483D01*
X115286433Y-62716657D01*
X115075996Y-62609433D01*
X114851368Y-62536446D01*
X114618097Y-62499500D01*
X114618092Y-62499500D01*
X114381908Y-62499500D01*
X114381903Y-62499500D01*
X114148631Y-62536446D01*
X113924003Y-62609433D01*
X113713566Y-62716657D01*
X113604550Y-62795862D01*
X113522490Y-62855483D01*
X113522488Y-62855485D01*
X113522487Y-62855485D01*
X113355485Y-63022487D01*
X113355485Y-63022488D01*
X113355483Y-63022490D01*
X113333152Y-63053226D01*
X113216657Y-63213566D01*
X113109433Y-63424003D01*
X113036446Y-63648631D01*
X112999500Y-63881902D01*
X109500500Y-63881902D01*
X109463553Y-63648631D01*
X109390566Y-63424003D01*
X109300012Y-63246282D01*
X109283343Y-63213567D01*
X109144517Y-63022490D01*
X108977510Y-62855483D01*
X108786433Y-62716657D01*
X108575996Y-62609433D01*
X108351368Y-62536446D01*
X108118097Y-62499500D01*
X108118092Y-62499500D01*
X107881908Y-62499500D01*
X107881903Y-62499500D01*
X107648631Y-62536446D01*
X107424003Y-62609433D01*
X107213566Y-62716657D01*
X107104550Y-62795862D01*
X107022490Y-62855483D01*
X107022488Y-62855485D01*
X107022487Y-62855485D01*
X106855485Y-63022487D01*
X106855485Y-63022488D01*
X106855483Y-63022490D01*
X106833152Y-63053226D01*
X106716657Y-63213566D01*
X106609433Y-63424003D01*
X106536446Y-63648631D01*
X106499500Y-63881902D01*
X102000500Y-63881902D01*
X102000500Y-59381902D01*
X106499500Y-59381902D01*
X106499500Y-59618097D01*
X106536446Y-59851368D01*
X106609433Y-60075996D01*
X106716657Y-60286433D01*
X106855483Y-60477510D01*
X107022490Y-60644517D01*
X107213567Y-60783343D01*
X107312991Y-60834002D01*
X107424003Y-60890566D01*
X107424005Y-60890566D01*
X107424008Y-60890568D01*
X107544412Y-60929689D01*
X107648631Y-60963553D01*
X107881903Y-61000500D01*
X107881908Y-61000500D01*
X108118097Y-61000500D01*
X108351368Y-60963553D01*
X108575992Y-60890568D01*
X108786433Y-60783343D01*
X108977510Y-60644517D01*
X109144517Y-60477510D01*
X109283343Y-60286433D01*
X109390568Y-60075992D01*
X109463553Y-59851368D01*
X109500500Y-59618097D01*
X109500500Y-59381902D01*
X112999500Y-59381902D01*
X112999500Y-59618097D01*
X113036446Y-59851368D01*
X113109433Y-60075996D01*
X113216657Y-60286433D01*
X113355483Y-60477510D01*
X113522490Y-60644517D01*
X113713567Y-60783343D01*
X113812991Y-60834002D01*
X113924003Y-60890566D01*
X113924005Y-60890566D01*
X113924008Y-60890568D01*
X114044412Y-60929689D01*
X114148631Y-60963553D01*
X114381903Y-61000500D01*
X114381908Y-61000500D01*
X114618097Y-61000500D01*
X114851368Y-60963553D01*
X115075992Y-60890568D01*
X115286433Y-60783343D01*
X115477510Y-60644517D01*
X115644517Y-60477510D01*
X115783343Y-60286433D01*
X115890568Y-60075992D01*
X115963553Y-59851368D01*
X116000500Y-59618097D01*
X116000500Y-59381902D01*
X115963553Y-59148631D01*
X115890566Y-58924003D01*
X115783342Y-58713566D01*
X115644517Y-58522490D01*
X115477510Y-58355483D01*
X115286433Y-58216657D01*
X115286429Y-58216655D01*
X115075996Y-58109433D01*
X114851368Y-58036446D01*
X114618097Y-57999500D01*
X114618092Y-57999500D01*
X114381908Y-57999500D01*
X114381903Y-57999500D01*
X114148631Y-58036446D01*
X113924003Y-58109433D01*
X113713566Y-58216657D01*
X113604550Y-58295862D01*
X113522490Y-58355483D01*
X113522488Y-58355485D01*
X113522487Y-58355485D01*
X113355485Y-58522487D01*
X113355485Y-58522488D01*
X113355483Y-58522490D01*
X113295862Y-58604550D01*
X113216657Y-58713566D01*
X113109433Y-58924003D01*
X113036446Y-59148631D01*
X112999500Y-59381902D01*
X109500500Y-59381902D01*
X109463553Y-59148631D01*
X109390566Y-58924003D01*
X109283342Y-58713566D01*
X109144517Y-58522490D01*
X108977510Y-58355483D01*
X108881971Y-58286070D01*
X108786431Y-58216655D01*
X108668204Y-58156415D01*
X108617409Y-58108441D01*
X108600500Y-58045931D01*
X108600500Y-40759499D01*
X108620185Y-40692460D01*
X108672989Y-40646705D01*
X108724500Y-40635499D01*
X109817853Y-40635499D01*
X109887466Y-40629174D01*
X109887469Y-40629173D01*
X109887471Y-40629173D01*
X110047678Y-40579251D01*
X110121589Y-40534570D01*
X110191277Y-40492443D01*
X110191278Y-40492441D01*
X110191283Y-40492439D01*
X110309939Y-40373783D01*
X110396751Y-40230178D01*
X110446673Y-40069971D01*
X110453000Y-40000347D01*
X110452999Y-38999655D01*
X127047000Y-38999655D01*
X127047000Y-40000354D01*
X127053325Y-40069966D01*
X127053328Y-40069977D01*
X127103247Y-40230175D01*
X127103249Y-40230179D01*
X127190056Y-40373777D01*
X127190060Y-40373782D01*
X127308717Y-40492439D01*
X127308722Y-40492443D01*
X127418925Y-40559062D01*
X127452322Y-40579251D01*
X127612529Y-40629173D01*
X127682153Y-40635500D01*
X129317846Y-40635499D01*
X129317853Y-40635499D01*
X129387466Y-40629174D01*
X129387469Y-40629173D01*
X129387471Y-40629173D01*
X129547678Y-40579251D01*
X129621589Y-40534570D01*
X129691277Y-40492443D01*
X129691278Y-40492441D01*
X129691283Y-40492439D01*
X129809939Y-40373783D01*
X129896751Y-40230178D01*
X129910016Y-40187608D01*
X129948753Y-40129462D01*
X130012778Y-40101488D01*
X130028401Y-40100500D01*
X143658164Y-40100500D01*
X143725203Y-40120185D01*
X143768648Y-40168204D01*
X143802185Y-40234023D01*
X143931752Y-40412358D01*
X143931756Y-40412363D01*
X143981928Y-40462535D01*
X144015413Y-40523858D01*
X144010429Y-40593550D01*
X143968557Y-40649483D01*
X143937581Y-40666398D01*
X143857669Y-40696203D01*
X143857664Y-40696206D01*
X143742455Y-40782452D01*
X143742452Y-40782455D01*
X143656206Y-40897664D01*
X143656202Y-40897671D01*
X143605908Y-41032517D01*
X143599501Y-41092116D01*
X143599501Y-41092123D01*
X143599500Y-41092135D01*
X143599500Y-41315500D01*
X143579815Y-41382539D01*
X143527011Y-41428294D01*
X143475500Y-41439500D01*
X132546669Y-41439500D01*
X132546653Y-41439499D01*
X132539057Y-41439499D01*
X132380943Y-41439499D01*
X132273587Y-41468265D01*
X132228210Y-41480424D01*
X132228209Y-41480425D01*
X132178096Y-41509359D01*
X132178095Y-41509360D01*
X132134689Y-41534420D01*
X132091285Y-41559479D01*
X132091282Y-41559481D01*
X131029481Y-42621282D01*
X131029479Y-42621285D01*
X130979361Y-42708094D01*
X130979359Y-42708096D01*
X130950425Y-42758209D01*
X130950424Y-42758210D01*
X130950423Y-42758215D01*
X130909499Y-42910943D01*
X130909499Y-42910945D01*
X130909499Y-43079046D01*
X130909500Y-43079059D01*
X130909500Y-62325272D01*
X130889815Y-62392311D01*
X130837011Y-62438066D01*
X130832954Y-62439832D01*
X130756274Y-62471594D01*
X130756272Y-62471595D01*
X130563226Y-62583052D01*
X130563217Y-62583058D01*
X130386377Y-62718751D01*
X130386370Y-62718757D01*
X130228757Y-62876370D01*
X130228751Y-62876377D01*
X130093058Y-63053217D01*
X130093052Y-63053226D01*
X129981595Y-63246273D01*
X129981593Y-63246277D01*
X129896293Y-63452209D01*
X129896290Y-63452219D01*
X129838597Y-63667534D01*
X129838594Y-63667547D01*
X129809501Y-63888533D01*
X129809500Y-63888549D01*
X129809500Y-64111450D01*
X129809501Y-64111466D01*
X129838594Y-64332452D01*
X129838595Y-64332457D01*
X129838596Y-64332463D01*
X129838597Y-64332465D01*
X129896290Y-64547780D01*
X129896293Y-64547790D01*
X129949834Y-64677048D01*
X129981595Y-64753726D01*
X130093052Y-64946774D01*
X130093057Y-64946780D01*
X130093058Y-64946782D01*
X130228751Y-65123622D01*
X130228757Y-65123629D01*
X130386370Y-65281242D01*
X130386377Y-65281248D01*
X130512294Y-65377867D01*
X130563226Y-65416948D01*
X130756274Y-65528405D01*
X130962219Y-65613710D01*
X131177537Y-65671404D01*
X131398543Y-65700500D01*
X131398550Y-65700500D01*
X131621450Y-65700500D01*
X131621457Y-65700500D01*
X131842463Y-65671404D01*
X132057781Y-65613710D01*
X132263726Y-65528405D01*
X132456774Y-65416948D01*
X132633624Y-65281247D01*
X132791247Y-65123624D01*
X132926948Y-64946774D01*
X133038405Y-64753726D01*
X133123710Y-64547781D01*
X133181404Y-64332463D01*
X133210500Y-64111457D01*
X133210500Y-63888543D01*
X133181404Y-63667537D01*
X133123710Y-63452219D01*
X133038405Y-63246274D01*
X132926948Y-63053226D01*
X132791247Y-62876376D01*
X132791242Y-62876370D01*
X132633629Y-62718757D01*
X132633622Y-62718751D01*
X132456782Y-62583058D01*
X132456780Y-62583057D01*
X132456774Y-62583052D01*
X132312059Y-62499500D01*
X132263727Y-62471595D01*
X132263725Y-62471594D01*
X132187046Y-62439832D01*
X132132643Y-62395991D01*
X132110579Y-62329696D01*
X132110500Y-62325272D01*
X132110500Y-43290097D01*
X132130185Y-43223058D01*
X132146819Y-43202416D01*
X132672416Y-42676819D01*
X132733739Y-42643334D01*
X132760097Y-42640500D01*
X143475501Y-42640500D01*
X143542540Y-42660185D01*
X143588295Y-42712989D01*
X143599501Y-42764500D01*
X143599501Y-42987876D01*
X143605908Y-43047483D01*
X143656202Y-43182328D01*
X143656206Y-43182335D01*
X143742452Y-43297544D01*
X143742455Y-43297547D01*
X143857664Y-43383793D01*
X143857671Y-43383797D01*
X143992517Y-43434091D01*
X143992516Y-43434091D01*
X143999444Y-43434835D01*
X144052127Y-43440500D01*
X145947872Y-43440499D01*
X146007483Y-43434091D01*
X146142331Y-43383796D01*
X146257546Y-43297546D01*
X146343796Y-43182331D01*
X146394091Y-43047483D01*
X146400500Y-42987873D01*
X146400499Y-41092128D01*
X146394091Y-41032517D01*
X146343796Y-40897669D01*
X146343795Y-40897668D01*
X146343793Y-40897664D01*
X146257547Y-40782455D01*
X146257544Y-40782452D01*
X146142335Y-40696206D01*
X146142328Y-40696202D01*
X146062419Y-40666398D01*
X146006485Y-40624527D01*
X145982068Y-40559062D01*
X145996920Y-40490789D01*
X146018069Y-40462537D01*
X146068242Y-40412365D01*
X146197815Y-40234022D01*
X146297895Y-40037606D01*
X146366015Y-39827951D01*
X146400500Y-39610222D01*
X146400500Y-39389778D01*
X146366015Y-39172049D01*
X146310002Y-38999655D01*
X146297896Y-38962396D01*
X146297895Y-38962393D01*
X146221463Y-38812390D01*
X146197815Y-38765978D01*
X146096277Y-38626222D01*
X146068247Y-38587641D01*
X146068243Y-38587636D01*
X145912363Y-38431756D01*
X145912358Y-38431752D01*
X145734025Y-38302187D01*
X145734024Y-38302186D01*
X145734022Y-38302185D01*
X145671096Y-38270122D01*
X145537606Y-38202104D01*
X145537603Y-38202103D01*
X145327952Y-38133985D01*
X145219086Y-38116742D01*
X145110222Y-38099500D01*
X144889778Y-38099500D01*
X144817201Y-38110995D01*
X144672047Y-38133985D01*
X144462396Y-38202103D01*
X144462393Y-38202104D01*
X144265974Y-38302187D01*
X144087641Y-38431752D01*
X144087636Y-38431756D01*
X143931756Y-38587636D01*
X143931752Y-38587641D01*
X143802185Y-38765976D01*
X143768648Y-38831796D01*
X143720674Y-38882591D01*
X143658164Y-38899500D01*
X130028401Y-38899500D01*
X129961362Y-38879815D01*
X129915607Y-38827011D01*
X129910018Y-38812398D01*
X129896751Y-38769822D01*
X129882843Y-38746815D01*
X129809943Y-38626222D01*
X129809939Y-38626217D01*
X129691282Y-38507560D01*
X129691277Y-38507556D01*
X129547680Y-38420750D01*
X129547679Y-38420749D01*
X129547678Y-38420749D01*
X129387471Y-38370827D01*
X129387469Y-38370826D01*
X129387467Y-38370826D01*
X129338721Y-38366396D01*
X129317847Y-38364500D01*
X129317844Y-38364500D01*
X127682145Y-38364500D01*
X127612533Y-38370825D01*
X127612522Y-38370828D01*
X127452324Y-38420747D01*
X127452320Y-38420749D01*
X127308722Y-38507556D01*
X127308717Y-38507560D01*
X127190060Y-38626217D01*
X127190056Y-38626222D01*
X127103250Y-38769819D01*
X127053326Y-38930032D01*
X127047000Y-38999655D01*
X110452999Y-38999655D01*
X110452999Y-38999654D01*
X110452999Y-38999653D01*
X110452999Y-38999645D01*
X110446674Y-38930033D01*
X110446671Y-38930022D01*
X110396752Y-38769824D01*
X110396750Y-38769820D01*
X110309943Y-38626222D01*
X110309939Y-38626217D01*
X110191282Y-38507560D01*
X110191277Y-38507556D01*
X110047680Y-38420750D01*
X110047679Y-38420749D01*
X110047678Y-38420749D01*
X109887471Y-38370827D01*
X109887469Y-38370826D01*
X109887467Y-38370826D01*
X109838721Y-38366396D01*
X109817847Y-38364500D01*
X109817844Y-38364500D01*
X108182145Y-38364500D01*
X108112533Y-38370825D01*
X108112522Y-38370828D01*
X107952324Y-38420747D01*
X107952320Y-38420749D01*
X107808722Y-38507556D01*
X107808717Y-38507560D01*
X107690060Y-38626217D01*
X107690056Y-38626222D01*
X107603250Y-38769819D01*
X107553326Y-38930032D01*
X107547000Y-38999655D01*
X107547000Y-39553327D01*
X107542615Y-39569295D01*
X107543137Y-39584038D01*
X107532637Y-39605641D01*
X107529618Y-39616640D01*
X107523030Y-39627733D01*
X107519480Y-39631284D01*
X107469360Y-39718095D01*
X107469015Y-39718692D01*
X107468969Y-39718770D01*
X107440425Y-39768209D01*
X107440424Y-39768210D01*
X107440423Y-39768215D01*
X107399499Y-39920943D01*
X107399499Y-39920945D01*
X107399499Y-40089046D01*
X107399500Y-40089059D01*
X107399500Y-58045931D01*
X107379815Y-58112970D01*
X107331796Y-58156415D01*
X107213568Y-58216655D01*
X107079901Y-58313771D01*
X107022490Y-58355483D01*
X107022488Y-58355485D01*
X107022487Y-58355485D01*
X106855485Y-58522487D01*
X106855485Y-58522488D01*
X106855483Y-58522490D01*
X106795862Y-58604550D01*
X106716657Y-58713566D01*
X106609433Y-58924003D01*
X106536446Y-59148631D01*
X106499500Y-59381902D01*
X102000500Y-59381902D01*
X102000500Y-27124500D01*
X102020185Y-27057461D01*
X102072989Y-27011706D01*
X102124500Y-27000500D01*
X189875500Y-27000500D01*
X189942539Y-27020185D01*
G37*
%TD.AperFunction*%
M02*
